<svg width="129" height="129" viewBox="0 0 129 129" fill="none" xmlns="http://www.w3.org/2000/svg">
<path d="M0.815825 2.14214C0.428 1.29873 1.29872 0.427998 2.14214 0.815817L63.9559 29.2389C64.221 29.3608 64.5262 29.3608 64.7914 29.2389L126.605 0.815824C127.449 0.427998 128.319 1.29872 127.931 2.14213L99.5084 63.9559C99.3864 64.221 99.3864 64.5262 99.5084 64.7914L127.931 126.605C128.319 127.449 127.449 128.319 126.605 127.931L64.7914 99.5084C64.5262 99.3864 64.221 99.3864 63.9559 99.5084L2.14215 127.931C1.29873 128.319 0.428001 127.449 0.81582 126.605L29.2389 64.7914C29.3608 64.5262 29.3608 64.221 29.2389 63.9559L0.815825 2.14214Z" fill="#FFF4E2"/>
</svg>
