<svg width="42" height="42" viewBox="0 0 42 42" fill="none" xmlns="http://www.w3.org/2000/svg">
<path d="M20.6802 41.0845C20.7965 41.399 21.2413 41.399 21.3577 41.0845L26.6332 26.8277C26.6698 26.7288 26.7477 26.6509 26.8466 26.6143L41.1035 21.3388C41.4179 21.2224 41.4179 20.7776 41.1035 20.6612L26.8466 15.3857C26.7477 15.3491 26.6698 15.2712 26.6332 15.1723L21.3577 0.915462C21.2413 0.600998 20.7965 0.600998 20.6802 0.915462L15.4047 15.1723C15.3681 15.2712 15.2901 15.3491 15.1913 15.3857L0.934385 20.6612C0.619917 20.7776 0.619917 21.2224 0.934385 21.3388L15.1913 26.6143C15.2901 26.6509 15.3681 26.7288 15.4047 26.8277L20.6802 41.0845Z" fill="#F9ACD6"/>
</svg>
