<svg width="131" height="124" viewBox="0 0 131 124" fill="none" xmlns="http://www.w3.org/2000/svg">
<path d="M64.5489 0.927054C64.8483 0.00574327 66.1517 0.00574017 66.4511 0.927051L81.1037 46.0233C81.2376 46.4353 81.6216 46.7143 82.0548 46.7143H129.472C130.441 46.7143 130.843 47.9539 130.06 48.5233L91.6984 76.3943C91.3479 76.649 91.2013 77.1004 91.3351 77.5124L105.988 122.609C106.287 123.53 105.233 124.296 104.449 123.727L66.0878 95.8557C65.7373 95.601 65.2627 95.601 64.9122 95.8557L26.551 123.727C25.7673 124.296 24.7128 123.53 25.0122 122.609L39.6649 77.5124C39.7987 77.1004 39.6521 76.649 39.3016 76.3943L0.940416 48.5233C0.156703 47.9539 0.559476 46.7143 1.5282 46.7143H48.9452C49.3784 46.7143 49.7624 46.4353 49.8963 46.0233L64.5489 0.927054Z" fill="#FFF4E2"/>
</svg>
