<svg width="41" height="41" viewBox="0 0 41 41" fill="none" xmlns="http://www.w3.org/2000/svg">
<path d="M19.6981 1.29806C19.9683 0.532787 21.0506 0.532786 21.3207 1.29806L25.9848 14.5092C26.0714 14.7545 26.2643 14.9475 26.5097 15.0341L39.7208 19.6981C40.4861 19.9683 40.4861 21.0506 39.7208 21.3207L26.5097 25.9848C26.2643 26.0714 26.0714 26.2643 25.9848 26.5097L21.3207 39.7208C21.0506 40.4861 19.9683 40.4861 19.6981 39.7208L15.0341 26.5097C14.9475 26.2643 14.7545 26.0714 14.5092 25.9848L1.29806 21.3207C0.532787 21.0506 0.532786 19.9683 1.29806 19.6981L14.5092 15.0341C14.7545 14.9475 14.9475 14.7545 15.0341 14.5092L19.6981 1.29806Z" fill="#CDD3AF"/>
</svg>
